<?xml version="1.0" encoding="UTF-8"?>
<svg width="100pt" height="100pt" version="1.1" viewBox="0 0 100 100" xmlns="http://www.w3.org/2000/svg">
 <g>
  <path d="m17.383 88.453c-0.23828-0.51953-0.84375-0.74219-1.3594-0.50781-0.15625 0.070313-3.8633 1.7969-4.7344 4.6406-0.36719 1.1953-0.1875 2.4375 0.51563 3.5938 0.19531 0.31641 0.53125 0.49219 0.87891 0.49219 0.18359 0 0.36719-0.046875 0.53125-0.14844 0.48438-0.29688 0.64062-0.92578 0.34375-1.4102-0.39844-0.65625-0.5-1.2852-0.30859-1.918 0.49609-1.6289 2.7852-2.9883 3.625-3.3789 0.51562-0.23828 0.74219-0.84766 0.50781-1.3633z"/>
  <path d="m8.6016 88.09c-1.3906 1.1445-3.6016 4.2852-2 7.9648 0.16797 0.38672 0.54688 0.61719 0.94141 0.61719 0.13672 0 0.27344-0.027344 0.41016-0.085937 0.51953-0.22656 0.75781-0.83203 0.53125-1.3516-1.375-3.1641 1.3125-5.4688 1.4258-5.5625 0.43359-0.35938 0.49609-1.0078 0.13672-1.4414-0.35938-0.44141-1.0039-0.5-1.4453-0.14062z"/>
  <path d="m77.41 88.883c0-0.56641-0.46094-1.0273-1.0273-1.0273h-11.645c-0.56641 0-1.0273 0.46094-1.0273 1.0273 0 0.56641 0.46094 1.0273 1.0273 1.0273h11.645c0.56641-0.003906 1.0273-0.46094 1.0273-1.0273z"/>
  <path d="m78.094 92.988h-8.9062c-0.56641 0-1.0273 0.46094-1.0273 1.0273s0.46094 1.0273 1.0273 1.0273h8.9062c0.56641 0 1.0273-0.46094 1.0273-1.0273s-0.46094-1.0273-1.0273-1.0273z"/>
  <path d="m82.297 58.457c-0.125-0.09375-0.27344-0.15234-0.42969-0.18359l-6.5742-1.1445c5.25-20.109 0.57812-36.012-4.7852-39.41-1.4727-0.93359-2.6914-1.4062-3.7695-1.5469 0.38672-0.46094 0.73047-0.97656 1.0195-1.5625 0.96094-1.9375 1.25-4.3164 0.8125-6.6992-0.83984-4.582-4.082-7.9102-7.7109-7.9102-0.34766 0-0.69141 0.03125-1.0312 0.09375-1.9453 0.35547-3.5742 1.6758-4.5859 3.7148-0.96094 1.9375-1.25 4.3164-0.8125 6.6992 0.78516 4.2852 3.6719 7.4688 7.0117 7.8672-0.3125 0.27344-0.62891 0.5625-0.95703 0.86328-6.4648 3.1289-11.414 0.80078-11.848 0.375-0.1875-0.21094-0.73047-0.90234-1.3516-1.707-2.3477-3.0195-4.75-6.0508-6.0547-7.0664-2.1484-1.6719-5.2305-1.6602-10.086-1.5-2.5977 0.085937-4.5312 1.2031-5.1758 2.9844-0.44531 1.2266-0.16016 2.5703 0.70703 3.3477 1.2891 1.1484 3.5977 1.0508 6.0352 0.94531 1.625-0.066407 3.4688-0.14453 4.2031 0.28516 1.3164 0.77344 3.5703 4.293 5.0586 6.6172 0.69141 1.0781 1.2891 2.0117 1.7383 2.6133 1.5938 2.125 7.5547 3.8203 10.246 4.4922-2.0078 6.3633-7.5664 20.266-13.602 33.242v0.003906c-5.582 12-11.566 23.207-15.531 26.934-1.9102 0.21484-7.8516 1.1641-7.8555 4.668 0 0.90234 0.44922 2.5312 3.4766 3.3086 1.0625 0.27344 2.3984 0.41016 3.832 0.41016 4.25 0 9.3555-1.1992 10.684-3.625 1.2578-2.293 7.5625-12.996 9.7227-16.652 0.39844 0.6875 0.80859 1.3789 1.2227 2.0703 2.0273 3.4219 4.1172 6.9453 5.6016 10.656-3.1875 0.53125-9.1289 1.9336-9.3828 5-0.14062 1.6875 1.8594 2.7656 5.9492 3.1992 0.92969 0.097656 2.0586 0.16016 3.2812 0.16016 4.9492 0 11.395-1.0078 11.859-4.6445 0.23438-1.8359-1.5469-5.4961-4.7109-11.816-2.9961-5.9805-7.5234-15.02-6.3359-17.406 0.79688-1.5977 2.1289-2.7109 3.5391-3.8906 2.3555-1.9648 5.0273-4.1953 5.9258-9.1367 0.57422-3.1484 4.6523-14.016 6.3984-18.594 0.66016 1.3906 1.4141 3.3945 1.4961 5.4375 0.070312 1.8828-0.59766 5.6016-1.2422 9.1953-0.73438 4.0859-1.4258 7.9414-1.2539 9.9844 0.10156 1.1719 0.90625 3.2305 5.1914 3.8945 3.7578 0.58203 9.9883-0.14844 10.891-2.3398 0.12891-0.29297 0.42578-1.3242-0.81641-2.2266zm-25.852-48.32c-0.35547-1.9492-0.13281-3.8711 0.63281-5.4141 0.71875-1.4453 1.8242-2.3711 3.1172-2.6055 0.21875-0.039063 0.4375-0.0625 0.66016-0.0625 2.5938 0 5.0391 2.6797 5.6914 6.2305 0.35547 1.9492 0.13281 3.8711-0.63281 5.4141-0.71875 1.4453-1.8242 2.3711-3.1172 2.6055-2.7617 0.5-5.6445-2.3164-6.3516-6.168zm-23.281 84.438c-1.082 1.9727-8.1562 3.2539-12.207 2.2148-0.58203-0.14844-1.9336-0.57422-1.9336-1.3164 0-1.3477 3.6797-2.4141 6.3359-2.6602 0.21484-0.019531 0.42188-0.10938 0.58594-0.25391 3.8008-3.3516 9.1367-12.895 14.293-23.633 0.51562 2.5352 1.7617 5.1875 3.2773 7.9258-1.1367 1.9219-8.9023 15.082-10.352 17.723zm38.191-33.836c-0.98828-0.27344-2.1875-0.80859-2.2695-1.7852-0.15234-1.7734 0.55078-5.6758 1.2305-9.4453 0.69531-3.875 1.3555-7.5312 1.2734-9.6406-0.16406-4.2773-2.75-8.1953-2.8594-8.3594-0.21484-0.32031-0.59375-0.49219-0.96875-0.44922-0.38281 0.042968-0.70703 0.29297-0.84766 0.64844-0.26562 0.6875-6.5352 16.84-7.2969 21.031-0.76563 4.2109-2.9297 6.0156-5.2227 7.9258-1.5117 1.2617-3.0781 2.5664-4.0625 4.5547-1.5273 3.0703 1.6641 9.9102 6.3398 19.242 2.1914 4.375 4.6758 9.332 4.5078 10.637-0.10938 0.875-1.5234 1.7148-3.7734 2.2422-5.3984 1.2695-12.285 0.38281-13.211-0.625 0.33203-1.2617 4.8555-2.6953 8.8672-3.2266 0.30859-0.039062 0.58203-0.21875 0.74219-0.48438 0.16016-0.26562 0.19141-0.58984 0.089843-0.88281-1.5625-4.3281-3.9297-8.3203-6.2148-12.184-3.5234-5.9453-6.5664-11.09-5.3789-15.363 6.5625-14.172 12.445-29.227 13.945-34.395 0.003906-0.011719 0-0.019532 0.003906-0.03125 0.003906-0.011719 0.011719-0.015626 0.011719-0.027344 0.011719-0.058594 0-0.11328 0.003906-0.17188 0.003906-0.070313 0.015625-0.13672 0.007813-0.20703-0.011719-0.066407-0.035157-0.12109-0.058594-0.18359-0.023438-0.0625-0.035156-0.12891-0.070313-0.1875-0.03125-0.054688-0.082031-0.097656-0.12109-0.14844-0.046876-0.050781-0.082032-0.10547-0.13672-0.14453-0.054688-0.039063-0.11719-0.0625-0.17969-0.09375-0.054687-0.027344-0.097656-0.0625-0.15625-0.082031-0.011719-0.003906-0.019531 0-0.027343-0.003906-0.011719-0.003907-0.019532-0.011719-0.027344-0.011719-3.3359-0.76172-9.0312-2.5156-10.133-3.9805-0.40625-0.54297-0.98438-1.4453-1.6523-2.4922-2.2695-3.5469-4.1367-6.332-5.7461-7.2812-1.2578-0.73828-3.2344-0.65625-5.332-0.56641-1.7422 0.070313-3.9141 0.16406-4.5781-0.42969-0.20313-0.18359-0.32031-0.625-0.14453-1.1133 0.34766-0.96484 1.5898-1.5742 3.3125-1.6328 4.3945-0.14453 7.1641-0.17188 8.7539 1.0664 1.2109 0.94531 4.1289 4.6914 5.6953 6.707 0.70312 0.90234 1.2109 1.5547 1.4492 1.8203 1.2695 1.4062 7.418 3.4805 14.414 0.027344 0.085938-0.042969 0.18359-0.11328 0.25391-0.17969 2.9141-2.6797 4.0078-3.6797 7.6328-1.3828 4.3359 2.7461 9.25 17.867 3.6133 38.223-0.078125 0.27734-0.03125 0.57812 0.12109 0.82422s0.40625 0.41406 0.69141 0.46484l6.9688 1.2109c-1.5 0.74219-6.082 1.5117-9.4609 0.56641z"/>
  <path d="m21.871 16.359c0.17578 0.11719 0.37109 0.17188 0.57031 0.17188 0.33203 0 0.65625-0.16016 0.85547-0.45703 0.3125-0.47266 0.1875-1.1094-0.28516-1.4258-0.5-0.33594-0.78125-0.73438-0.875-1.2656-0.23828-1.3086 0.74219-3.0234 1.1367-3.5742 0.33203-0.46094 0.23047-1.1016-0.23047-1.4336-0.46094-0.33203-1.1016-0.23047-1.4336 0.22656-0.19922 0.27344-1.9297 2.7383-1.4961 5.1406 0.19141 1.0742 0.80078 1.9805 1.7578 2.6172z"/>
  <path d="m16.449 13.902c0.16016 0 0.32031-0.035156 0.47266-0.11719 0.50391-0.26172 0.69922-0.88281 0.4375-1.3867-0.88672-1.6992-0.32031-2.3398-0.25781-2.3984 0.42578-0.34766 0.5-0.97266 0.16797-1.4141-0.34375-0.44922-0.98828-0.53906-1.4414-0.19531-0.082031 0.0625-2.0391 1.6016-0.28906 4.9609 0.17969 0.35156 0.53906 0.55078 0.91016 0.55078z"/>
  <path d="m85.738 54.504c-0.44922-0.34375-1.0977-0.25781-1.4375 0.19141-0.34375 0.44922-0.25781 1.0977 0.19141 1.4414 0.035156 0.027343 3.5859 2.7812 2.082 5.0352-0.3125 0.47266-0.1875 1.1094 0.28516 1.4258 0.17578 0.11719 0.37109 0.17188 0.56641 0.17188 0.33203 0 0.65625-0.16016 0.85547-0.45703 2.043-3.0664-0.63672-6.3516-2.543-7.8086z"/>
  <path d="m92.004 54.594c-0.40234-0.40234-1.0469-0.39844-1.4492 0-0.40234 0.39844-0.40234 1.0508-0.007813 1.4531 0.019531 0.019531 2.0273 2.0898 1.0938 3.9531-0.25391 0.50781-0.050781 1.125 0.46094 1.3789 0.14844 0.074219 0.30469 0.10938 0.46094 0.10938 0.37891 0 0.73828-0.20703 0.92188-0.56641 1.5938-3.1992-1.3555-6.2031-1.4805-6.3281z"/>
 </g>
</svg>
