<?xml version="1.0" standalone="no"?>
<!DOCTYPE svg PUBLIC "-//W3C//DTD SVG 20010904//EN"
 "http://www.w3.org/TR/2001/REC-SVG-20010904/DTD/svg10.dtd">
<svg version="1.0" xmlns="http://www.w3.org/2000/svg"
 width="642.000000pt" height="642.000000pt" viewBox="0 0 642.000000 642.000000"
 preserveAspectRatio="xMidYMid meet">
<metadata>
Created by potrace 1.11, written by Peter Selinger 2001-2013
</metadata>
<g transform="translate(0.000000,642.000000) scale(0.100000,-0.100000)"
fill="#000000" stroke="none">
<path d="M3102 6332 c-166 -54 -257 -244 -197 -411 22 -62 49 -96 211 -261 78
-80 186 -190 241 -246 54 -55 244 -250 423 -433 179 -183 374 -383 433 -444
60 -62 173 -177 252 -257 78 -80 146 -156 150 -169 21 -67 -34 -141 -106 -141
-45 0 -34 -10 -462 410 -126 124 -295 290 -377 370 -126 123 -658 644 -1013
994 -121 118 -153 140 -233 161 -102 26 -196 8 -279 -55 -92 -69 -143 -195
-124 -306 18 -104 25 -112 616 -704 310 -311 568 -571 573 -579 17 -28 4 -91
-25 -121 -38 -39 -59 -41 -165 -15 -67 17 -218 45 -275 50 -146 15 -363 6
-515 -20 -229 -40 -532 -161 -621 -248 -131 -129 -127 -343 8 -468 67 -61 123
-83 218 -83 76 0 86 2 190 51 124 57 243 97 325 108 30 4 64 9 75 12 32 6 215
6 275 -2 264 -31 507 -151 700 -345 102 -102 170 -196 230 -318 40 -81 85
-206 94 -263 3 -19 9 -45 12 -59 4 -14 8 -95 10 -180 3 -164 -10 -254 -57
-400 -76 -231 -258 -468 -467 -608 -131 -87 -294 -157 -413 -177 -24 -4 -53
-10 -64 -12 -48 -12 -305 -11 -380 2 -578 98 -1003 603 -998 1185 2 186 41
351 123 520 52 105 67 181 51 252 -24 108 -86 190 -181 236 -78 38 -191 38
-270 1 -100 -47 -147 -108 -228 -299 -96 -227 -145 -471 -146 -725 0 -109 14
-269 29 -345 3 -14 8 -36 10 -50 11 -56 15 -74 40 -167 75 -275 219 -547 430
-811 5 -7 55 -59 110 -116 89 -92 138 -139 241 -226 68 -58 313 -214 422 -268
207 -103 453 -192 617 -223 28 -5 73 -14 100 -19 153 -32 309 -45 525 -43 139
1 397 23 450 38 8 2 29 7 45 10 17 2 75 16 130 30 55 14 108 27 118 30 34 8
172 58 257 93 443 181 839 503 1104 897 81 120 203 365 245 490 59 179 79 268
107 486 3 24 7 400 8 834 2 845 1 868 -49 1005 -45 127 -99 196 -319 414 -213
210 -936 921 -1219 1199 -117 115 -315 311 -442 435 -126 125 -248 241 -270
258 -77 60 -202 79 -303 46z"/>
<path d="M5305 5914 c-96 -26 -179 -98 -223 -193 l-26 -56 -2 -335 c0 -184 3
-342 7 -351 4 -8 101 -107 215 -220 113 -112 257 -254 318 -316 l111 -112 -1
657 c0 461 -4 669 -12 697 -25 88 -103 175 -188 211 -39 16 -163 27 -199 18z"/>
</g>
</svg>
